{
  "accessors": [
    {
      "name": "MDL_OBJ_Knit_Cotton_Jersey_FRONT_2524_1_0_positions",
      "componentType": 5126,
      "count": 4205,
      "min": [
        16.503599166870117,
        133.93499755859375,
        -15.55370044708252
      ],
      "max": [
        30.775999069213867,
        155.89300537109375,
        0.27178800106048584
      ],
      "type": "VEC3",
      "bufferView": 0,
      "byteOffset": 0
    },
    {
      "name": "MDL_OBJ_Knit_Cotton_Jersey_FRONT_2524_1_0_normals",
      "componentType": 5126,
      "count": 4205,
      "min": [
        -0.9999678730964661,
        -0.8927279114723206,
        -0.9998090267181396
      ],
      "max": [
        0.9995706081390381,
        0.7438361048698425,
        0.9996098875999451
      ],
      "type": "VEC3",
      "bufferView": 1,
      "byteOffset": 0
    },
    {
      "name": "MDL_OBJ_Knit_Cotton_Jersey_FRONT_2524_1_0_texcoords",
      "componentType": 5126,
      "count": 4205,
      "min": [
        0.06667300313711166,
        0.03657300025224686
      ],
      "max": [
        0.4168959856033325,
        0.20468400418758392
      ],
      "type": "VEC2",
      "bufferView": 2,
      "byteOffset": 0
    },
    {
      "name": "MDL_OBJ_Knit_Cotton_Jersey_FRONT_2524_1_0_indices",
      "componentType": 5123,
      "count": 24582,
      "min": [
        0
      ],
      "max": [
        4204
      ],
      "type": "SCALAR",
      "bufferView": 3,
      "byteOffset": 0
    },
    {
      "name": "MDL_OBJ_Knit_Cotton_Jersey_FRONT_2524_1_1_0_positions",
      "componentType": 5126,
      "count": 4243,
      "min": [
        -30.71500015258789,
        134.06100463867188,
        -15.881099700927734
      ],
      "max": [
        -16.53030014038086,
        155.93600463867188,
        0.290134996175766
      ],
      "type": "VEC3",
      "bufferView": 0,
      "byteOffset": 50460
    },
    {
      "name": "MDL_OBJ_Knit_Cotton_Jersey_FRONT_2524_1_1_0_normals",
      "componentType": 5126,
      "count": 4243,
      "min": [
        -0.9950203895568848,
        -0.959237277507782,
        -0.9998614192008972
      ],
      "max": [
        0.9996622800827026,
        0.7477123737335205,
        0.9996566772460938
      ],
      "type": "VEC3",
      "bufferView": 1,
      "byteOffset": 50460
    },
    {
      "name": "MDL_OBJ_Knit_Cotton_Jersey_FRONT_2524_1_1_0_texcoords",
      "componentType": 5126,
      "count": 4243,
      "min": [
        0.5675240159034729,
        0.03657300025224686
      ],
      "max": [
        0.9177470207214355,
        0.20468400418758392
      ],
      "type": "VEC2",
      "bufferView": 2,
      "byteOffset": 33640
    },
    {
      "name": "MDL_OBJ_Knit_Cotton_Jersey_FRONT_2524_1_1_0_indices",
      "componentType": 5123,
      "count": 24810,
      "min": [
        0
      ],
      "max": [
        4242
      ],
      "type": "SCALAR",
      "bufferView": 3,
      "byteOffset": 49164
    },
    {
      "name": "MDL_OBJ_Knit_Cotton_Jersey_FRONT_2524_2_1_0_positions",
      "componentType": 5126,
      "count": 11240,
      "min": [
        -22.258399963378906,
        101.36399841308594,
        -8.157279968261719
      ],
      "max": [
        22.265100479125977,
        162.2030029296875,
        7.11693000793457
      ],
      "type": "VEC3",
      "bufferView": 0,
      "byteOffset": 101376
    },
    {
      "name": "MDL_OBJ_Knit_Cotton_Jersey_FRONT_2524_2_1_0_normals",
      "componentType": 5126,
      "count": 11240,
      "min": [
        -0.999977171421051,
        -0.7648440003395081,
        -0.49126192927360535
      ],
      "max": [
        0.9999095797538757,
        0.959381639957428,
        0.9999997019767761
      ],
      "type": "VEC3",
      "bufferView": 1,
      "byteOffset": 101376
    },
    {
      "name": "MDL_OBJ_Knit_Cotton_Jersey_FRONT_2524_2_1_0_texcoords",
      "componentType": 5126,
      "count": 11240,
      "min": [
        0.02751999907195568,
        0.41454601287841797
      ],
      "max": [
        0.48110899329185486,
        0.9698669910430908
      ],
      "type": "VEC2",
      "bufferView": 2,
      "byteOffset": 67584
    },
    {
      "name": "MDL_OBJ_Knit_Cotton_Jersey_FRONT_2524_2_1_0_indices",
      "componentType": 5123,
      "count": 66258,
      "min": [
        0
      ],
      "max": [
        11239
      ],
      "type": "SCALAR",
      "bufferView": 3,
      "byteOffset": 98784
    },
    {
      "name": "MDL_OBJ_Knit_Cotton_Jersey_FRONT_2524_3_1_0_positions",
      "componentType": 5126,
      "count": 11730,
      "min": [
        -22.105300903320312,
        101.18900299072266,
        -19.958200454711914
      ],
      "max": [
        22.11750030517578,
        163.44000244140625,
        -6.682859897613525
      ],
      "type": "VEC3",
      "bufferView": 0,
      "byteOffset": 236256
    },
    {
      "name": "MDL_OBJ_Knit_Cotton_Jersey_FRONT_2524_3_1_0_normals",
      "componentType": 5126,
      "count": 11730,
      "min": [
        -0.9995899200439453,
        -0.7416219115257263,
        -0.9999999403953552
      ],
      "max": [
        0.9999934434890747,
        0.959381639957428,
        0.8325450420379639
      ],
      "type": "VEC3",
      "bufferView": 1,
      "byteOffset": 236256
    },
    {
      "name": "MDL_OBJ_Knit_Cotton_Jersey_FRONT_2524_3_1_0_texcoords",
      "componentType": 5126,
      "count": 11730,
      "min": [
        0.5330320000648499,
        0.39291998744010925
      ],
      "max": [
        0.9710919857025146,
        0.969868004322052
      ],
      "type": "VEC2",
      "bufferView": 2,
      "byteOffset": 157504
    },
    {
      "name": "MDL_OBJ_Knit_Cotton_Jersey_FRONT_2524_3_1_0_indices",
      "componentType": 5123,
      "count": 69228,
      "min": [
        0
      ],
      "max": [
        11729
      ],
      "type": "SCALAR",
      "bufferView": 3,
      "byteOffset": 231300
    },
    {
      "name": "MDL_OBJ_Knit_Cotton_Jersey_FRONT_2524_4_1_0_positions",
      "componentType": 5126,
      "count": 431,
      "min": [
        -8.752820014953613,
        156.44000244140625,
        -6.735159873962402
      ],
      "max": [
        8.740260124206543,
        163.45700073242188,
        0.31433001160621643
      ],
      "type": "VEC3",
      "bufferView": 0,
      "byteOffset": 377016
    },
    {
      "name": "MDL_OBJ_Knit_Cotton_Jersey_FRONT_2524_4_1_0_normals",
      "componentType": 5126,
      "count": 431,
      "min": [
        -0.7727077007293701,
        0.25062888860702515,
        0.3929092586040497
      ],
      "max": [
        0.7540267705917358,
        0.714546799659729,
        0.9679695963859558
      ],
      "type": "VEC3",
      "bufferView": 1,
      "byteOffset": 377016
    },
    {
      "name": "MDL_OBJ_Knit_Cotton_Jersey_FRONT_2524_4_1_0_texcoords",
      "componentType": 5126,
      "count": 431,
      "min": [
        0.18521800637245178,
        0.3208810091018677
      ],
      "max": [
        0.348827987909317,
        0.39972200989723206
      ],
      "type": "VEC2",
      "bufferView": 2,
      "byteOffset": 251344
    },
    {
      "name": "MDL_OBJ_Knit_Cotton_Jersey_FRONT_2524_4_1_0_indices",
      "componentType": 5123,
      "count": 2238,
      "min": [
        0
      ],
      "max": [
        430
      ],
      "type": "SCALAR",
      "bufferView": 3,
      "byteOffset": 369756
    },
    {
      "name": "MDL_OBJ_Knit_Cotton_Jersey_FRONT_2524_5_1_0_positions",
      "componentType": 5126,
      "count": 374,
      "min": [
        -8.72031021118164,
        162.18699645996094,
        -11.750399589538574
      ],
      "max": [
        8.74347972869873,
        165.25599670410156,
        -6.263820171356201
      ],
      "type": "VEC3",
      "bufferView": 0,
      "byteOffset": 382188
    },
    {
      "name": "MDL_OBJ_Knit_Cotton_Jersey_FRONT_2524_5_1_0_normals",
      "componentType": 5126,
      "count": 374,
      "min": [
        -0.7763992547988892,
        0.19162507355213165,
        -0.9813103675842285
      ],
      "max": [
        0.7540267705917358,
        0.8394917249679565,
        0.5350220203399658
      ],
      "type": "VEC3",
      "bufferView": 1,
      "byteOffset": 382188
    },
    {
      "name": "MDL_OBJ_Knit_Cotton_Jersey_FRONT_2524_5_1_0_texcoords",
      "componentType": 5126,
      "count": 374,
      "min": [
        0.6559299826622009,
        0.32805201411247253
      ],
      "max": [
        0.8293409943580627,
        0.3705120086669922
      ],
      "type": "VEC2",
      "bufferView": 2,
      "byteOffset": 254792
    },
    {
      "name": "MDL_OBJ_Knit_Cotton_Jersey_FRONT_2524_5_1_0_indices",
      "componentType": 5123,
      "count": 1956,
      "min": [
        0
      ],
      "max": [
        373
      ],
      "type": "SCALAR",
      "bufferView": 3,
      "byteOffset": 374232
    },
    {
      "name": "MDL_OBJ_Knit_Cotton_Jersey_FRONT_2524_6_1_0_positions",
      "componentType": 5126,
      "count": 705,
      "min": [
        17.346500396728516,
        133.93499755859375,
        -13.357399940490723
      ],
      "max": [
        30.775999069213867,
        140.2729949951172,
        -1.4492199420928955
      ],
      "type": "VEC3",
      "bufferView": 0,
      "byteOffset": 386676
    },
    {
      "name": "MDL_OBJ_Knit_Cotton_Jersey_FRONT_2524_6_1_0_normals",
      "componentType": 5126,
      "count": 705,
      "min": [
        -0.9867921471595764,
        -0.6091038584709167,
        -0.9998051524162292
      ],
      "max": [
        0.9816436171531677,
        0.630831241607666,
        0.9982390999794006
      ],
      "type": "VEC3",
      "bufferView": 1,
      "byteOffset": 386676
    },
    {
      "name": "MDL_OBJ_Knit_Cotton_Jersey_FRONT_2524_6_1_0_texcoords",
      "componentType": 5126,
      "count": 705,
      "min": [
        0.5863770246505737,
        0.26754701137542725
      ],
      "max": [
        0.9177470207214355,
        0.2873609960079193
      ],
      "type": "VEC2",
      "bufferView": 2,
      "byteOffset": 257784
    },
    {
      "name": "MDL_OBJ_Knit_Cotton_Jersey_FRONT_2524_6_1_0_indices",
      "componentType": 5123,
      "count": 3720,
      "min": [
        0
      ],
      "max": [
        704
      ],
      "type": "SCALAR",
      "bufferView": 3,
      "byteOffset": 378144
    },
    {
      "name": "MDL_OBJ_Knit_Cotton_Jersey_FRONT_2524_7_1_0_positions",
      "componentType": 5126,
      "count": 710,
      "min": [
        -30.71500015258789,
        134.06100463867188,
        -13.378999710083008
      ],
      "max": [
        -17.35409927368164,
        140.31100463867188,
        -1.5812499523162842
      ],
      "type": "VEC3",
      "bufferView": 0,
      "byteOffset": 395136
    },
    {
      "name": "MDL_OBJ_Knit_Cotton_Jersey_FRONT_2524_7_1_0_normals",
      "componentType": 5126,
      "count": 710,
      "min": [
        -0.9828574061393738,
        -0.6163247227668762,
        -0.9998614192008972
      ],
      "max": [
        0.9767851829528809,
        0.6037381887435913,
        0.9991549849510193
      ],
      "type": "VEC3",
      "bufferView": 1,
      "byteOffset": 395136
    },
    {
      "name": "MDL_OBJ_Knit_Cotton_Jersey_FRONT_2524_7_1_0_texcoords",
      "componentType": 5126,
      "count": 710,
      "min": [
        0.07279500365257263,
        0.24773100018501282
      ],
      "max": [
        0.40416499972343445,
        0.26754501461982727
      ],
      "type": "VEC2",
      "bufferView": 2,
      "byteOffset": 263424
    },
    {
      "name": "MDL_OBJ_Knit_Cotton_Jersey_FRONT_2524_7_1_0_indices",
      "componentType": 5123,
      "count": 3750,
      "min": [
        0
      ],
      "max": [
        709
      ],
      "type": "SCALAR",
      "bufferView": 3,
      "byteOffset": 385584
    }
  ],
  "asset": {
    "generator": "obj2gltf",
    "version": "2.0"
  },
  "buffers": [
    {
      "name": "t-shirt_obj_thin",
      "byteLength": 1638832,
      "uri": "data:application/octet-stream;base64,"
    }
  ],
  "bufferViews": [
    {
      "name": "bufferView_0",
      "buffer": 0,
      "byteLength": 403656,
      "byteOffset": 0,
      "byteStride": 12,
      "target": 34962
    },
    {
      "name": "bufferView_1",
      "buffer": 0,
      "byteLength": 403656,
      "byteOffset": 403656,
      "byteStride": 12,
      "target": 34962
    },
    {
      "name": "bufferView_2",
      "buffer": 0,
      "byteLength": 269104,
      "byteOffset": 807312,
      "byteStride": 8,
      "target": 34962
    },
    {
      "name": "bufferView_3",
      "buffer": 0,
      "byteLength": 393084,
      "byteOffset": 1076416,
      "target": 34963
    },
    {
      "buffer": 0,
      "byteOffset": 1469500,
      "byteLength": 169332
    }
  ],
  "images": [
    {
      "name": "Knit_Cotton_Jersey_FRONT_2524-color",
      "mimeType": "image/png",
      "bufferView": 4
    }
  ],
  "materials": [
    {
      "name": "Knit_Cotton_Jersey_FRONT_2524",
      "pbrMetallicRoughness": {
        "baseColorTexture": {
          "index": 0
        },
        "baseColorFactor": [
          1,
          1,
          1,
          1
        ],
        "metallicFactor": 0,
        "roughnessFactor": 1
      },
      "emissiveFactor": [
        0,
        0,
        0
      ],
      "alphaMode": "OPAQUE",
      "doubleSided": false
    }
  ],
  "meshes": [
    {
      "name": "MDL_OBJ_Knit_Cotton_Jersey_FRONT_2524_1",
      "primitives": [
        {
          "attributes": {
            "POSITION": 0,
            "NORMAL": 1,
            "TEXCOORD_0": 2
          },
          "indices": 3,
          "material": 0,
          "mode": 4
        }
      ]
    },
    {
      "name": "MDL_OBJ_Knit_Cotton_Jersey_FRONT_2524_1_1",
      "primitives": [
        {
          "attributes": {
            "POSITION": 4,
            "NORMAL": 5,
            "TEXCOORD_0": 6
          },
          "indices": 7,
          "material": 0,
          "mode": 4
        }
      ]
    },
    {
      "name": "MDL_OBJ_Knit_Cotton_Jersey_FRONT_2524_2_1",
      "primitives": [
        {
          "attributes": {
            "POSITION": 8,
            "NORMAL": 9,
            "TEXCOORD_0": 10
          },
          "indices": 11,
          "material": 0,
          "mode": 4
        }
      ]
    },
    {
      "name": "MDL_OBJ_Knit_Cotton_Jersey_FRONT_2524_3_1",
      "primitives": [
        {
          "attributes": {
            "POSITION": 12,
            "NORMAL": 13,
            "TEXCOORD_0": 14
          },
          "indices": 15,
          "material": 0,
          "mode": 4
        }
      ]
    },
    {
      "name": "MDL_OBJ_Knit_Cotton_Jersey_FRONT_2524_4_1",
      "primitives": [
        {
          "attributes": {
            "POSITION": 16,
            "NORMAL": 17,
            "TEXCOORD_0": 18
          },
          "indices": 19,
          "material": 0,
          "mode": 4
        }
      ]
    },
    {
      "name": "MDL_OBJ_Knit_Cotton_Jersey_FRONT_2524_5_1",
      "primitives": [
        {
          "attributes": {
            "POSITION": 20,
            "NORMAL": 21,
            "TEXCOORD_0": 22
          },
          "indices": 23,
          "material": 0,
          "mode": 4
        }
      ]
    },
    {
      "name": "MDL_OBJ_Knit_Cotton_Jersey_FRONT_2524_6_1",
      "primitives": [
        {
          "attributes": {
            "POSITION": 24,
            "NORMAL": 25,
            "TEXCOORD_0": 26
          },
          "indices": 27,
          "material": 0,
          "mode": 4
        }
      ]
    },
    {
      "name": "MDL_OBJ_Knit_Cotton_Jersey_FRONT_2524_7_1",
      "primitives": [
        {
          "attributes": {
            "POSITION": 28,
            "NORMAL": 29,
            "TEXCOORD_0": 30
          },
          "indices": 31,
          "material": 0,
          "mode": 4
        }
      ]
    }
  ],
  "nodes": [
    {
      "name": "MDL_OBJ_Knit_Cotton_Jersey_FRONT_2524",
      "mesh": 0
    },
    {
      "name": "MDL_OBJ_Knit_Cotton_Jersey_FRONT_2524_1",
      "mesh": 1
    },
    {
      "name": "MDL_OBJ_Knit_Cotton_Jersey_FRONT_2524_2",
      "mesh": 2
    },
    {
      "name": "MDL_OBJ_Knit_Cotton_Jersey_FRONT_2524_3",
      "mesh": 3
    },
    {
      "name": "MDL_OBJ_Knit_Cotton_Jersey_FRONT_2524_4",
      "mesh": 4
    },
    {
      "name": "MDL_OBJ_Knit_Cotton_Jersey_FRONT_2524_5",
      "mesh": 5
    },
    {
      "name": "MDL_OBJ_Knit_Cotton_Jersey_FRONT_2524_6",
      "mesh": 6
    },
    {
      "name": "MDL_OBJ_Knit_Cotton_Jersey_FRONT_2524_7",
      "mesh": 7
    }
  ],
  "samplers": [
    {
      "wrapS": 10497,
      "wrapT": 10497
    }
  ],
  "scene": 0,
  "scenes": [
    {
      "nodes": [
        0,
        1,
        2,
        3,
        4,
        5,
        6,
        7
      ]
    }
  ],
  "textures": [
    {
      "name": "Knit_Cotton_Jersey_FRONT_2524-color",
      "sampler": 0,
      "source": 0
    }
  ]
}
